<?xml version="1.0" encoding="UTF-8"?>
<svg version="1.1" xmlns="http://www.w3.org/2000/svg" width="50" height="50">
<path d="M0 0 C1.32 0 2.64 0 4 0 C4 1.32 4 2.64 4 4 C4.66 4 5.32 4 6 4 C6.33 5.98 6.66 7.96 7 10 C7.66 10 8.32 10 9 10 C9 11.32 9 12.64 9 14 C13.95 14.33 18.9 14.66 24 15 C24 16.32 24 17.64 24 19 C23.01 19 22.02 19 21 19 C21 20.32 21 21.64 21 23 C19.68 23 18.36 23 17 23 C17 23.99 17 24.98 17 26 C16.01 26 15.02 26 14 26 C14 27.98 14 29.96 14 32 C14.66 32 15.32 32 16 32 C16.495 35.465 16.495 35.465 17 39 C17.66 39 18.32 39 19 39 C19 40.32 19 41.64 19 43 C16.69 43 14.38 43 12 43 C12 41.68 12 40.36 12 39 C10.35 39 8.7 39 7 39 C7 38.01 7 37.02 7 36 C3.7 36 0.4 36 -3 36 C-3 36.99 -3 37.98 -3 39 C-4.65 39 -6.3 39 -8 39 C-8 40.32 -8 41.64 -8 43 C-10.31 43 -12.62 43 -15 43 C-15 41.68 -15 40.36 -15 39 C-14.34 39 -13.68 39 -13 39 C-12.67 36.69 -12.34 34.38 -12 32 C-11.34 32 -10.68 32 -10 32 C-10 30.02 -10 28.04 -10 26 C-10.99 26 -11.98 26 -13 26 C-13 25.01 -13 24.02 -13 23 C-14.32 23 -15.64 23 -17 23 C-17 21.68 -17 20.36 -17 19 C-17.99 19 -18.98 19 -20 19 C-20 17.68 -20 16.36 -20 15 C-15.05 14.67 -10.1 14.34 -5 14 C-5 12.68 -5 11.36 -5 10 C-4.34 10 -3.68 10 -3 10 C-2.67 8.02 -2.34 6.04 -2 4 C-1.34 4 -0.68 4 0 4 C0 2.68 0 1.36 0 0 Z " fill="#FFD050" transform="translate(23,1)"/>
</svg>
